<svg width="410" height="60" viewBox="0 0 410 60" fill="none" xmlns="http://www.w3.org/2000/svg">
<path d="M21.4382 37V23.9091H29.6456V25.6094H23.4134V29.598H29.2173V31.2919H23.4134V35.2997H29.7223V37H21.4382ZM34.0417 31.1705V37H32.1305V27.1818H33.965V28.7798H34.0865C34.3123 28.2599 34.666 27.8423 35.1475 27.527C35.6333 27.2116 36.2449 27.054 36.9821 27.054C37.6511 27.054 38.237 27.1946 38.7399 27.4759C39.2427 27.7528 39.6326 28.1662 39.9096 28.7159C40.1866 29.2656 40.3251 29.9453 40.3251 30.755V37H38.4139V30.9851C38.4139 30.2734 38.2285 29.7173 37.8578 29.3168C37.487 28.9119 36.9778 28.7095 36.3301 28.7095C35.8869 28.7095 35.4927 28.8054 35.1475 28.9972C34.8066 29.1889 34.536 29.4702 34.3358 29.8409C34.1397 30.2074 34.0417 30.6506 34.0417 31.1705ZM47.4714 27.1818V28.7159H42.1085V27.1818H47.4714ZM43.5467 24.8295H45.4579V34.1172C45.4579 34.4879 45.5133 34.767 45.6241 34.9545C45.7349 35.1378 45.8777 35.2635 46.0524 35.3317C46.2314 35.3956 46.4252 35.4276 46.6341 35.4276C46.7875 35.4276 46.9217 35.4169 47.0368 35.3956C47.1518 35.3743 47.2413 35.3572 47.3052 35.3445L47.6504 36.9233C47.5396 36.9659 47.3819 37.0085 47.1774 37.0511C46.9728 37.098 46.7172 37.1236 46.4103 37.1278C45.9075 37.1364 45.4387 37.0469 45.0041 36.8594C44.5694 36.6719 44.2179 36.3821 43.9494 35.9901C43.6809 35.598 43.5467 35.1058 43.5467 34.5135V24.8295ZM53.7116 37.1982C52.7443 37.1982 51.9112 36.9915 51.2124 36.5781C50.5178 36.1605 49.9808 35.5746 49.6016 34.8203C49.2266 34.0618 49.0391 33.1733 49.0391 32.1548C49.0391 31.1491 49.2266 30.2628 49.6016 29.4957C49.9808 28.7287 50.5092 28.13 51.1868 27.6996C51.8686 27.2692 52.6655 27.054 53.5774 27.054C54.1314 27.054 54.6683 27.1456 55.1882 27.3288C55.7081 27.5121 56.1747 27.7997 56.5881 28.1918C57.0014 28.5838 57.3274 29.093 57.5661 29.7195C57.8047 30.3416 57.924 31.098 57.924 31.9886V32.6662H50.1193V31.2344H56.0511C56.0511 30.7315 55.9489 30.2862 55.7443 29.8984C55.5398 29.5064 55.2521 29.1974 54.8814 28.9716C54.5149 28.7457 54.0845 28.6328 53.5902 28.6328C53.0533 28.6328 52.5845 28.7649 52.1839 29.0291C51.7876 29.2891 51.4808 29.63 51.2635 30.0518C51.0504 30.4695 50.9439 30.9233 50.9439 31.4134V32.532C50.9439 33.1882 51.0589 33.7464 51.2891 34.2067C51.5234 34.6669 51.8494 35.0185 52.267 35.2614C52.6847 35.5 53.1726 35.6193 53.7308 35.6193C54.093 35.6193 54.4233 35.5682 54.7216 35.4659C55.0199 35.3594 55.2777 35.2017 55.495 34.9929C55.7124 34.7841 55.8786 34.5263 55.9936 34.2195L57.8026 34.5455C57.6577 35.0781 57.3977 35.5447 57.0227 35.9453C56.652 36.3416 56.1854 36.6506 55.6229 36.8722C55.0646 37.0895 54.4276 37.1982 53.7116 37.1982ZM60.0446 37V27.1818H61.8919V28.7415H61.9941C62.1731 28.2131 62.4885 27.7976 62.9402 27.495C63.3961 27.1882 63.9118 27.0348 64.487 27.0348C64.6064 27.0348 64.747 27.0391 64.9089 27.0476C65.0751 27.0561 65.2051 27.0668 65.2988 27.0795V28.9077C65.2221 28.8864 65.0858 28.8629 64.8897 28.8374C64.6937 28.8075 64.4977 28.7926 64.3017 28.7926C63.85 28.7926 63.4473 28.8885 63.0936 29.0803C62.7441 29.2678 62.4672 29.5298 62.2626 29.8665C62.0581 30.1989 61.9558 30.5781 61.9558 31.0043V37H60.0446ZM72.9245 40.6818C72.639 40.6818 72.3791 40.6584 72.1447 40.6115C71.9103 40.5689 71.7356 40.522 71.6206 40.4709L72.0808 38.9048C72.4302 38.9986 72.7413 39.0391 73.014 39.0263C73.2868 39.0135 73.5275 38.9112 73.7363 38.7195C73.9494 38.5277 74.1369 38.2145 74.2988 37.7798L74.5353 37.1278L70.943 27.1818H72.9885L75.475 34.8011H75.5772L78.0637 27.1818H80.1156L76.0694 38.3104C75.8819 38.8217 75.6433 39.2543 75.3535 39.608C75.0637 39.9659 74.7186 40.2344 74.318 40.4134C73.9174 40.5923 73.4529 40.6818 72.9245 40.6818ZM85.7134 37.1982C84.793 37.1982 83.9897 36.9872 83.3036 36.5653C82.6175 36.1435 82.0849 35.5533 81.7056 34.7947C81.3263 34.0362 81.1367 33.1499 81.1367 32.1357C81.1367 31.1172 81.3263 30.2266 81.7056 29.4638C82.0849 28.701 82.6175 28.1087 83.3036 27.6868C83.9897 27.2649 84.793 27.054 85.7134 27.054C86.6339 27.054 87.4371 27.2649 88.1232 27.6868C88.8093 28.1087 89.342 28.701 89.7212 29.4638C90.1005 30.2266 90.2901 31.1172 90.2901 32.1357C90.2901 33.1499 90.1005 34.0362 89.7212 34.7947C89.342 35.5533 88.8093 36.1435 88.1232 36.5653C87.4371 36.9872 86.6339 37.1982 85.7134 37.1982ZM85.7198 35.5938C86.3164 35.5938 86.8107 35.4361 87.2028 35.1207C87.5948 34.8054 87.8846 34.3857 88.0721 33.8615C88.2638 33.3374 88.3597 32.7599 88.3597 32.1293C88.3597 31.5028 88.2638 30.9276 88.0721 30.4034C87.8846 29.875 87.5948 29.451 87.2028 29.1314C86.8107 28.8118 86.3164 28.652 85.7198 28.652C85.119 28.652 84.6204 28.8118 84.2241 29.1314C83.832 29.451 83.5401 29.875 83.3484 30.4034C83.1609 30.9276 83.0671 31.5028 83.0671 32.1293C83.0671 32.7599 83.1609 33.3374 83.3484 33.8615C83.5401 34.3857 83.832 34.8054 84.2241 35.1207C84.6204 35.4361 85.119 35.5938 85.7198 35.5938ZM98.6429 32.9283V27.1818H100.561V37H98.6813V35.2997H98.579C98.3532 35.8239 97.9909 36.2607 97.4924 36.6101C96.998 36.9553 96.3823 37.1278 95.6451 37.1278C95.0144 37.1278 94.4561 36.9893 93.9703 36.7124C93.4888 36.4311 93.1096 36.0156 92.8326 35.4659C92.5598 34.9162 92.4235 34.2365 92.4235 33.4268V27.1818H94.3347V33.1967C94.3347 33.8658 94.5201 34.3984 94.8908 34.7947C95.2615 35.1911 95.7431 35.3892 96.3354 35.3892C96.6934 35.3892 97.0492 35.2997 97.4029 35.1207C97.7608 34.9418 98.057 34.6712 98.2914 34.3089C98.53 33.9467 98.6472 33.4865 98.6429 32.9283ZM103.129 37V27.1818H104.976V28.7415H105.078C105.257 28.2131 105.572 27.7976 106.024 27.495C106.48 27.1882 106.996 27.0348 107.571 27.0348C107.69 27.0348 107.831 27.0391 107.993 27.0476C108.159 27.0561 108.289 27.0668 108.383 27.0795V28.9077C108.306 28.8864 108.17 28.8629 107.974 28.8374C107.778 28.8075 107.582 28.7926 107.386 28.7926C106.934 28.7926 106.531 28.8885 106.178 29.0803C105.828 29.2678 105.551 29.5298 105.347 29.8665C105.142 30.1989 105.04 30.5781 105.04 31.0043V37H103.129ZM119.032 37.1982C118.065 37.1982 117.232 36.9915 116.533 36.5781C115.838 36.1605 115.301 35.5746 114.922 34.8203C114.547 34.0618 114.359 33.1733 114.359 32.1548C114.359 31.1491 114.547 30.2628 114.922 29.4957C115.301 28.7287 115.83 28.13 116.507 27.6996C117.189 27.2692 117.986 27.054 118.898 27.054C119.452 27.054 119.989 27.1456 120.509 27.3288C121.028 27.5121 121.495 27.7997 121.908 28.1918C122.322 28.5838 122.648 29.093 122.886 29.7195C123.125 30.3416 123.244 31.098 123.244 31.9886V32.6662H115.44V31.2344H121.371C121.371 30.7315 121.269 30.2862 121.065 29.8984C120.86 29.5064 120.572 29.1974 120.202 28.9716C119.835 28.7457 119.405 28.6328 118.911 28.6328C118.374 28.6328 117.905 28.7649 117.504 29.0291C117.108 29.2891 116.801 29.63 116.584 30.0518C116.371 30.4695 116.264 30.9233 116.264 31.4134V32.532C116.264 33.1882 116.379 33.7464 116.609 34.2067C116.844 34.6669 117.17 35.0185 117.587 35.2614C118.005 35.5 118.493 35.6193 119.051 35.6193C119.413 35.6193 119.744 35.5682 120.042 35.4659C120.34 35.3594 120.598 35.2017 120.815 34.9929C121.033 34.7841 121.199 34.5263 121.314 34.2195L123.123 34.5455C122.978 35.0781 122.718 35.5447 122.343 35.9453C121.972 36.3416 121.506 36.6506 120.943 36.8722C120.385 37.0895 119.748 37.1982 119.032 37.1982ZM125.365 37V27.1818H127.199V28.7798H127.321C127.525 28.2386 127.86 27.8168 128.324 27.5142C128.789 27.2074 129.345 27.054 129.993 27.054C130.649 27.054 131.199 27.2074 131.642 27.5142C132.089 27.821 132.42 28.2429 132.633 28.7798H132.735C132.969 28.2557 133.342 27.8381 133.854 27.527C134.365 27.2116 134.974 27.054 135.682 27.054C136.572 27.054 137.299 27.3331 137.861 27.8913C138.428 28.4496 138.711 29.2912 138.711 30.4162V37H136.8V30.5952C136.8 29.9304 136.619 29.4489 136.257 29.1506C135.895 28.8523 135.462 28.7031 134.959 28.7031C134.337 28.7031 133.854 28.8949 133.508 29.2784C133.163 29.6577 132.991 30.1456 132.991 30.7422V37H131.086V30.4737C131.086 29.9411 130.92 29.5128 130.587 29.1889C130.255 28.8651 129.822 28.7031 129.29 28.7031C128.927 28.7031 128.593 28.799 128.286 28.9908C127.983 29.1783 127.738 29.4403 127.551 29.777C127.368 30.1136 127.276 30.5036 127.276 30.9467V37H125.365ZM144.13 37.2173C143.508 37.2173 142.946 37.1023 142.443 36.8722C141.94 36.6378 141.542 36.299 141.248 35.8558C140.958 35.4126 140.813 34.8693 140.813 34.2259C140.813 33.6719 140.919 33.2159 141.132 32.858C141.346 32.5 141.633 32.2166 141.995 32.0078C142.358 31.799 142.762 31.6413 143.21 31.5348C143.657 31.4283 144.113 31.3473 144.578 31.2919C145.166 31.2237 145.643 31.1683 146.01 31.1257C146.376 31.0788 146.642 31.0043 146.809 30.902C146.975 30.7997 147.058 30.6335 147.058 30.4034V30.3587C147.058 29.8004 146.9 29.3679 146.585 29.0611C146.274 28.7543 145.809 28.6009 145.191 28.6009C144.548 28.6009 144.041 28.7436 143.67 29.0291C143.304 29.3104 143.05 29.6236 142.909 29.9688L141.113 29.5597C141.326 28.9631 141.637 28.4815 142.047 28.1151C142.46 27.7443 142.935 27.4759 143.472 27.3097C144.009 27.1392 144.574 27.054 145.166 27.054C145.558 27.054 145.973 27.1009 146.412 27.1946C146.855 27.2841 147.269 27.4503 147.652 27.6932C148.04 27.9361 148.358 28.2834 148.605 28.7351C148.852 29.1825 148.975 29.7642 148.975 30.4801V37H147.109V35.6577H147.032C146.909 35.9048 146.723 36.1477 146.476 36.3864C146.229 36.625 145.912 36.8232 145.524 36.9808C145.136 37.1385 144.672 37.2173 144.13 37.2173ZM144.546 35.6832C145.074 35.6832 145.526 35.5788 145.901 35.37C146.28 35.1612 146.568 34.8885 146.764 34.5518C146.964 34.2109 147.064 33.8466 147.064 33.4588V32.1932C146.996 32.2614 146.864 32.3253 146.668 32.3849C146.476 32.4403 146.257 32.4893 146.01 32.532C145.762 32.5703 145.522 32.6065 145.287 32.6406C145.053 32.6705 144.857 32.696 144.699 32.7173C144.328 32.7642 143.99 32.843 143.683 32.9538C143.38 33.0646 143.137 33.2244 142.954 33.4332C142.775 33.6378 142.686 33.9105 142.686 34.2514C142.686 34.7244 142.86 35.0824 143.21 35.3253C143.559 35.5639 144.005 35.6832 144.546 35.6832ZM151.521 37V27.1818H153.432V37H151.521ZM152.486 25.6669C152.154 25.6669 151.868 25.5561 151.63 25.3345C151.395 25.1087 151.278 24.8402 151.278 24.5291C151.278 24.2138 151.395 23.9453 151.63 23.7237C151.868 23.4979 152.154 23.3849 152.486 23.3849C152.819 23.3849 153.102 23.4979 153.336 23.7237C153.575 23.9453 153.694 24.2138 153.694 24.5291C153.694 24.8402 153.575 25.1087 153.336 25.3345C153.102 25.5561 152.819 25.6669 152.486 25.6669ZM157.915 23.9091V37H156.004V23.9091H157.915ZM167.161 31.1705V37H165.25V23.9091H167.135V28.7798H167.257C167.487 28.2514 167.838 27.8317 168.311 27.5206C168.784 27.2095 169.402 27.054 170.165 27.054C170.838 27.054 171.426 27.1925 171.929 27.4695C172.436 27.7464 172.828 28.1598 173.105 28.7095C173.387 29.255 173.527 29.9368 173.527 30.755V37H171.616V30.9851C171.616 30.2649 171.431 29.7067 171.06 29.3104C170.689 28.9098 170.174 28.7095 169.513 28.7095C169.061 28.7095 168.657 28.8054 168.299 28.9972C167.945 29.1889 167.666 29.4702 167.461 29.8409C167.261 30.2074 167.161 30.6506 167.161 31.1705ZM180.309 37.1982C179.342 37.1982 178.509 36.9915 177.81 36.5781C177.115 36.1605 176.578 35.5746 176.199 34.8203C175.824 34.0618 175.637 33.1733 175.637 32.1548C175.637 31.1491 175.824 30.2628 176.199 29.4957C176.578 28.7287 177.107 28.13 177.784 27.6996C178.466 27.2692 179.263 27.054 180.175 27.054C180.729 27.054 181.266 27.1456 181.786 27.3288C182.306 27.5121 182.772 27.7997 183.186 28.1918C183.599 28.5838 183.925 29.093 184.164 29.7195C184.402 30.3416 184.522 31.098 184.522 31.9886V32.6662H176.717V31.2344H182.649C182.649 30.7315 182.547 30.2862 182.342 29.8984C182.137 29.5064 181.85 29.1974 181.479 28.9716C181.113 28.7457 180.682 28.6328 180.188 28.6328C179.651 28.6328 179.182 28.7649 178.782 29.0291C178.385 29.2891 178.078 29.63 177.861 30.0518C177.648 30.4695 177.542 30.9233 177.542 31.4134V32.532C177.542 33.1882 177.657 33.7464 177.887 34.2067C178.121 34.6669 178.447 35.0185 178.865 35.2614C179.282 35.5 179.77 35.6193 180.328 35.6193C180.691 35.6193 181.021 35.5682 181.319 35.4659C181.618 35.3594 181.875 35.2017 182.093 34.9929C182.31 34.7841 182.476 34.5263 182.591 34.2195L184.4 34.5455C184.255 35.0781 183.995 35.5447 183.62 35.9453C183.25 36.3416 182.783 36.6506 182.221 36.8722C181.662 37.0895 181.025 37.1982 180.309 37.1982ZM186.642 37V27.1818H188.49V28.7415H188.592C188.771 28.2131 189.086 27.7976 189.538 27.495C189.994 27.1882 190.509 27.0348 191.085 27.0348C191.204 27.0348 191.345 27.0391 191.507 27.0476C191.673 27.0561 191.803 27.0668 191.896 27.0795V28.9077C191.82 28.8864 191.683 28.8629 191.487 28.8374C191.291 28.8075 191.095 28.7926 190.899 28.7926C190.448 28.7926 190.045 28.8885 189.691 29.0803C189.342 29.2678 189.065 29.5298 188.86 29.8665C188.656 30.1989 188.553 30.5781 188.553 31.0043V37H186.642ZM197.43 37.1982C196.463 37.1982 195.63 36.9915 194.931 36.5781C194.237 36.1605 193.7 35.5746 193.32 34.8203C192.945 34.0618 192.758 33.1733 192.758 32.1548C192.758 31.1491 192.945 30.2628 193.32 29.4957C193.7 28.7287 194.228 28.13 194.906 27.6996C195.587 27.2692 196.384 27.054 197.296 27.054C197.85 27.054 198.387 27.1456 198.907 27.3288C199.427 27.5121 199.893 27.7997 200.307 28.1918C200.72 28.5838 201.046 29.093 201.285 29.7195C201.523 30.3416 201.643 31.098 201.643 31.9886V32.6662H193.838V31.2344H199.77C199.77 30.7315 199.668 30.2862 199.463 29.8984C199.259 29.5064 198.971 29.1974 198.6 28.9716C198.234 28.7457 197.803 28.6328 197.309 28.6328C196.772 28.6328 196.303 28.7649 195.903 29.0291C195.506 29.2891 195.2 29.63 194.982 30.0518C194.769 30.4695 194.663 30.9233 194.663 31.4134V32.532C194.663 33.1882 194.778 33.7464 195.008 34.2067C195.242 34.6669 195.568 35.0185 195.986 35.2614C196.403 35.5 196.891 35.6193 197.45 35.6193C197.812 35.6193 198.142 35.5682 198.44 35.4659C198.739 35.3594 198.996 35.2017 199.214 34.9929C199.431 34.7841 199.597 34.5263 199.712 34.2195L201.521 34.5455C201.376 35.0781 201.116 35.5447 200.741 35.9453C200.371 36.3416 199.904 36.6506 199.342 36.8722C198.783 37.0895 198.146 37.1982 197.43 37.1982Z" fill="#A6A6A6"/>
<rect x="1" y="1" width="408" height="58" rx="29" stroke="#A6A6A6" stroke-width="2"/>
<circle cx="380" cy="30" r="23" fill="#54BD95"/>
<path d="M373 30H387" stroke="white" stroke-width="2" stroke-linecap="round" stroke-linejoin="round"/>
<path d="M380 23L387 30L380 37" stroke="white" stroke-width="2" stroke-linecap="round" stroke-linejoin="round"/>
</svg>
